# xmcd
#
# Track frame offsets:
#	150
#	14306
#	33417
#	51106
#	62348
#	80499
#	94643
#
# Disc length: 1415 seconds
#
# Revision: 0
# Processed by: cddbd v1.5.1PL2 Copyright (c) Steve Scherf et al.
# Submitted via: dBpowerAMP V4.0
#
DISCID=49058507
DTITLE=Snake Mountain Moonshiners - Demo
DYEAR=2006
DGENRE=Country
TTITLE0=All My Love
TTITLE1=Cool Water
TTITLE2=Don't Let This Be
TTITLE3=Mama Tried
TTITLE4=Meadows
TTITLE5=Moonshiner
TTITLE6=Mind Your Own Business
EXTD=
EXTT0=
EXTT1=
EXTT2=
EXTT3=
EXTT4=
EXTT5=
EXTT6=
PLAYORDER=
